Coordinates
version=1
nRows=29
nColumns=24
inDegrees=yes

Units are S.I. units (second, meters, Newtons, ...)
Angles are in degrees.

endheader
time	pelvis_tilt	pelvis_list	pelvis_rotation	pelvis_tx	pelvis_ty	pelvis_tz	hip_flexion_r	hip_adduction_r	hip_rotation_r	knee_angle_r	ankle_angle_r	subtalar_angle_r	mtp_angle_r	hip_flexion_l	hip_adduction_l	hip_rotation_l	knee_angle_l	ankle_angle_l	subtalar_angle_l	mtp_angle_l	lumbar_extension	lumbar_bending	lumbar_rotation
      8.41000000	      0.08561600	      8.46709843	      6.10832302	      2.31313561	      0.89152878	     -0.29741389	     15.15199724	     -9.64098482	     -7.55227924	    -66.23739187	     -2.13022422	     -4.92071943	      0.00000000	      2.96246401	     14.80497950	      8.73490357	     -7.25894783	      9.08121850	     -3.61075960	      0.00000000	    -20.38641573	    -13.47236327	    -11.38585580
      8.42000000	     -0.01879044	      8.27261276	      6.25290258	      2.32238386	      0.89206612	     -0.29848938	     16.49279370	     -9.43011374	     -7.41351879	    -65.91650913	     -0.53640563	     -4.79225257	      0.00000000	      2.07758514	     14.56431608	      8.94105282	     -6.67191249	      9.41009233	     -3.34066311	      0.00000000	    -20.45123605	    -13.16499105	    -11.34320318
      8.43000000	     -0.13410814	      8.09329686	      6.36489171	      2.33162090	      0.89242819	     -0.29956695	     17.79358978	     -9.22844071	     -7.22625952	    -65.35444017	      0.96068068	     -4.58303129	      0.00000000	      1.23819491	     14.35196902	      9.09373583	     -6.12767433	      9.73730067	     -3.17986892	      0.00000000	    -20.48355339	    -12.86468193	    -11.34121771
      8.44000000	     -0.25115013	      7.87128706	      6.46681355	      2.34077958	      0.89270554	     -0.30053823	     19.02305081	     -8.94093939	     -7.00355736	    -64.49785031	      2.31149608	     -4.45451905	      0.00000000	      0.45569452	     14.09185448	      9.29257354	     -5.65936797	     10.07160658	     -3.06396449	      0.00000000	    -20.53195871	    -12.53075526	    -11.28786064
      8.45000000	     -0.37355481	      7.65897835	      6.55907722	      2.34993255	      0.89285226	     -0.30147900	     20.17887097	     -8.65159346	     -6.75313409	    -63.37567981	      3.58402703	     -4.35315096	      0.00000000	     -0.28548795	     13.84648815	      9.48467957	     -5.24823901	     10.40866844	     -3.00253071	      0.00000000	    -20.57048154	    -12.20523477	    -11.27433105
      8.46000000	     -0.50012694	      7.46616043	      6.65925884	      2.35905752	      0.89286189	     -0.30242715	     21.25169037	     -8.38455747	     -6.49692370	    -61.99195586	      4.80890800	     -4.27945827	      0.00000000	     -0.98656300	     13.62941010	      9.68901299	     -4.90025666	     10.74965330	     -3.02166814	      0.00000000	    -20.61161971	    -11.88770989	    -11.29918518
      8.47000000	     -0.63968002	      7.27140542	      6.76664070	      2.36816843	      0.89277868	     -0.30326637	     22.23725895	     -8.08847808	     -6.20781379	    -60.31648956	      5.90347006	     -4.33554725	      0.00000000	     -1.63532655	     13.40431901	      9.89985707	     -4.61758708	     11.09153294	     -3.02910691	      0.00000000	    -20.65044460	    -11.58785277	    -11.34878516
      8.48000000	     -0.78943485	      7.10472729	      6.87760578	      2.37730385	      0.89255593	     -0.30409669	     23.13420259	     -7.81993536	     -5.89582005	    -58.38055644	      6.89222072	     -4.48211750	      0.00000000	     -2.25310645	     13.21154649	     10.10630337	     -4.37848732	     11.44029509	     -3.04225115	      0.00000000	    -20.67536984	    -11.30240880	    -11.44471158
      8.49000000	     -0.85494316	      6.91392482	      7.09998721	      2.38650052	      0.89239336	     -0.30496427	     23.77607079	     -7.55694478	     -5.73174906	    -56.11619909	      7.69767505	     -4.81733913	      0.00000000	     -2.95707944	     12.97034254	     10.49752227	     -4.17440973	     11.79257791	     -3.17196326	      0.00000000	    -20.81741500	    -10.97688993	    -11.64076839
      8.50000000	     -1.00875066	      6.78210341	      7.24321572	      2.39574924	      0.89191190	     -0.30569330	     24.44946777	     -7.32230369	     -5.41447289	    -53.65240944	      8.41745510	     -5.12564098	      0.00000000	     -3.53765678	     12.80844956	     10.72799459	     -4.01918118	     12.18557636	     -3.25980421	      0.00000000	    -20.83202951	    -10.74571701	    -11.76759728
      8.51000000	     -1.15597475	      6.67153595	      7.43710311	      2.40509020	      0.89134353	     -0.30639356	     24.98308530	     -7.11667152	     -5.12550514	    -50.92463377	      8.93496841	     -5.54465164	      0.00000000	     -4.12572561	     12.65601651	     11.02340498	     -3.89061574	     12.56937298	     -3.34202752	      0.00000000	    -20.85811192	    -10.54496828	    -11.97443359
      8.52000000	     -1.28919157	      6.59182313	      7.66763234	      2.41456485	      0.89067644	     -0.30706321	     25.37012524	     -6.94381532	     -4.83395332	    -47.95298053	      9.29552714	     -5.97617663	      0.00000000	     -4.73684979	     12.52270046	     11.37869885	     -3.78198522	     12.94252084	     -3.45108531	      0.00000000	    -20.88394039	    -10.37747327	    -12.22698173
      8.53000000	     -1.36709103	      6.56053934	      7.93728601	      2.42410700	      0.88998984	     -0.30768667	     25.57059717	     -6.81703375	     -4.52826790	    -44.75640301	      9.50024666	     -6.34570729	      0.00000000	     -5.42235846	     12.41353163	     11.85108362	     -3.67754328	     13.23981708	     -3.61754514	      0.00000000	    -21.00817607	    -10.26291124	    -12.57791238
      8.54000000	     -1.51553225	      6.56159725	      8.19907275	      2.43382401	      0.88904027	     -0.30826963	     25.74221790	     -6.72800711	     -4.18623286	    -41.37808098	      9.62832893	     -6.55913591	      0.00000000	     -6.03629118	     12.34432529	     12.28820082	     -3.59591421	     13.56985445	     -3.78573095	      0.00000000	    -21.01131625	    -10.21123019	    -12.88328270
      8.55000000	     -1.73862690	      6.59712441	      8.45772779	      2.44369658	      0.88784981	     -0.30884253	     25.89194102	     -6.68016135	     -3.79031286	    -37.83926528	      9.68204159	     -6.55790806	      0.00000000	     -6.56445199	     12.32063297	     12.66679755	     -3.55863416	     13.94097532	     -3.88298229	      0.00000000	    -20.89306239	    -10.21203322	    -13.15516717
      8.56000000	     -1.85717596	      6.67621852	      8.79138744	      2.45371301	      0.88676951	     -0.30932609	     25.78261769	     -6.68321087	     -3.47238912	    -34.10307534	      9.59943757	     -6.48311811	      0.00000000	     -7.24955466	     12.28294003	     13.17561642	     -3.48185505	     14.21131579	     -3.98055444	      0.00000000	    -20.94696788	    -10.28204922	    -13.57609859
      8.57000000	     -1.99536509	      6.79922936	      9.10698285	      2.46386907	      0.88556035	     -0.30984707	     25.60489066	     -6.73599181	     -3.09330929	    -30.26733730	      9.47477303	     -6.09641321	      0.00000000	     -7.90559671	     12.29332342	     13.65180177	     -3.45741637	     14.48501770	     -4.02297455	      0.00000000	    -20.95130654	    -10.38205209	    -13.97365918
      8.58000000	     -2.10580727	      6.96943243	      9.44446712	      2.47415372	      0.88432783	     -0.31033305	     25.30113772	     -6.84787955	     -2.73940132	    -26.35428601	      9.30094332	     -5.48370518	      0.00000000	     -8.59596475	     12.32726559	     14.12563708	     -3.46314656	     14.73514989	     -3.99235006	      0.00000000	    -21.01014641	    -10.53750584	    -14.43041379
      8.59000000	     -2.19590018	      7.18115408	      9.78307700	      2.48461487	      0.88306348	     -0.31080481	     24.89997497	     -7.01712475	     -2.46081926	    -22.42687152	      9.10723926	     -4.61963566	      0.00000000	     -9.31076824	     12.38590455	     14.57643391	     -3.50410346	     14.96156481	     -3.89042169	      0.00000000	    -21.09022649	    -10.73691988	    -14.90926423
      8.60000000	     -2.26083309	      7.42296982	     10.12728940	      2.49525639	      0.88178316	     -0.31127804	     24.41812161	     -7.23451362	     -2.33859633	    -18.56001995	      8.91032151	     -3.50825355	      0.00000000	    -10.04635556	     12.45723105	     15.01819409	     -3.59537254	     15.16769976	     -3.73015259	      0.00000000	    -21.19326223	    -10.96108301	    -15.41209625
      8.61000000	     -2.23772999	      7.65445639	     10.45295367	      2.50611871	      0.88057222	     -0.31174028	     23.81082747	     -7.44144760	     -2.50215687	    -14.83301636	      8.75536164	     -2.06945171	      0.00000000	    -10.86525199	     12.49025167	     15.47232511	     -3.72796344	     15.35375483	     -3.58662365	      0.00000000	    -21.37901765	    -11.14201169	    -15.88977019
      8.62000000	     -2.31817258	      7.93314113	     10.87972839	      2.51701042	      0.87922649	     -0.31222703	     23.29093079	     -7.73140157	     -2.88054126	    -11.35239431	      8.56842511	     -0.56688411	      0.00000000	    -11.51091198	     12.56966827	     16.00696851	     -4.03199475	     15.58229000	     -3.29994457	      0.00000000	    -21.48408455	    -11.37890562	    -16.52379697
      8.63000000	     -2.19480196	      8.12774970	     11.28120837	      2.52836728	      0.87814756	     -0.31261964	     22.55540583	     -7.88286350	     -3.99180696	     -8.20375017	      8.60558788	      1.42274963	      0.00000000	    -12.37763130	     12.49717164	     16.52837356	     -4.33564454	     15.74590935	     -3.07299890	      0.00000000	    -21.73522211	    -11.50392903	    -17.05301205
      8.64000000	     -2.07191240	      8.28800240	     11.59567649	      2.53985240	      0.87701294	     -0.31288459	     21.91600998	     -7.93010121	     -5.28887699	     -5.56288021	      8.72106171	      3.62393968	      0.00000000	    -13.18126595	     12.40540523	     17.06237710	     -4.73787144	     15.89843279	     -2.95079932	      0.00000000	    -21.95381258	    -11.57852710	    -17.50097007
      8.65000000	     -1.96634789	      8.41258548	     11.96195152	      2.55148316	      0.87590621	     -0.31307599	     21.33053892	     -7.90485539	     -6.67703980	     -3.41344936	      8.81259483	      5.49399746	      0.00000000	    -13.87270775	     12.27272113	     17.57779617	     -5.32433175	     16.07602790	     -2.73833463	      0.00000000	    -22.14039387	    -11.61949014	    -17.96770774
      8.66000000	     -1.85849902	      8.48154616	     12.30550959	      2.56328991	      0.87484497	     -0.31318080	     20.81488370	     -7.77833012	     -7.99251070	     -1.81867572	      8.82647454	      6.86158752	      0.00000000	    -14.46980817	     12.09735256	     17.99560422	     -6.07590635	     16.25429968	     -2.45634064	      0.00000000	    -22.28921279	    -11.60174644	    -18.34776239
      8.67000000	     -1.76288988	      8.50309892	     12.61238366	      2.57528767	      0.87382105	     -0.31325837	     20.38582385	     -7.58482400	     -9.03787877	     -0.79299574	      8.71324144	      7.51976279	      0.00000000	    -14.95404400	     11.90374408	     18.25948973	     -6.99880420	     16.40794618	     -2.07667637	      0.00000000	    -22.37005194	    -11.52586600	    -18.68819737
      8.68000000	     -1.60713914	      8.44458045	     12.81486725	      2.58757078	      0.87294517	     -0.31329099	     19.99742650	     -7.27811007	     -9.90311156	     -0.35585740	      8.46569327	      7.64071039	      0.00000000	    -15.40169559	     11.65431826	     18.25924177	     -8.06667619	     16.51721650	     -1.54179504	      0.00000000	    -22.42455366	    -11.34639099	    -18.86163787
      8.69000000	     -1.54154249	      8.36490154	     13.04364945	      2.59999741	      0.87212447	     -0.31348949	     19.78009919	     -7.01023842	    -10.48794626	     -0.47444564	      8.01388415	      7.06273432	      0.00000000	    -15.64822203	     11.42964288	     18.26099369	     -9.33508172	     16.42947167	     -1.02912210	      0.00000000	    -22.33014614	    -11.12336463	    -19.01301258
